# xmcd
#
# Track frame offsets:
#	150
#	12412
#	24919
#	34571
#	49678
#	61251
#	74264
#	91462
#	105589
#	116662
#	130887
#	151001
#	163267
#	177269
#	189976
#	205560
#	220294
#	246540
#
# Disc length: 3291 seconds
#
# Revision: 1
# Processed by: cddbd v1.5.2PL0 Copyright (c) Steve Scherf et al.
# Submitted via: audiograbber 1.83.01
#
DISCID=f00cd912
DTITLE=Various Artist - Chartbuster Buster Bluegrass - Disc 2
DYEAR=1900
DGENRE=
TTITLE0=Monroe, Bill - New Mule Skinner Blues
TTITLE1=Wiseman, Mac - I Wonder How The Old Folks Are At Home
TTITLE2=Osborne Brothers and Red Allen - Ruby, Are You Mad
TTITLE3=Skaggs, Ricky and Harris, Emmylou - The Darkest Hour Is Just Before Dawn
TTITLE4=Jim and Jesse - Ole Slew Foot
TTITLE5=Martin, Jimmy - Honey You Don't Know My Mind
TTITLE6=Krauss, Allison - Two Highways
TTITLE7=Crowe, J.D. and The New South - Old Home Place
TTITLE8=Boone Creek - Head Over Heels
TTITLE9=Vincent, Rhonda - Drivin' Nails In My Coffin
TTITLE10=Skaggs, Ricky and Kentucky Thunder - Walls of Time
TTITLE11=Monroe, Bill - Little Georgia Rose
TTITLE12=Bluegrass Album Band - Big Spike Hammer
TTITLE13=Wiseman, Mac - Footprints In The Snow
TTITLE14=Stanley, Ralph - Little Cabin Home On The Hill
TTITLE15=The Cox Family and Krauss, Allison - Will There Be Any Stars In My Crown
TTITLE16=The Seldom Scene - House Of Gold
TTITLE17=Empty
EXTD=
EXTT0=
EXTT1=
EXTT2=
EXTT3=
EXTT4=
EXTT5=
EXTT6=
EXTT7=
EXTT8=
EXTT9=
EXTT10=
EXTT11=
EXTT12=
EXTT13=
EXTT14=
EXTT15=
EXTT16=
EXTT17=
PLAYORDER=
